<mxfile
  host="Electron" 
  agent="Mozilla/5.0 (Macintosh; Intel Mac OS X 10_15_7) AppleWebKit/537.36 (KHTML, like Gecko) draw.io/25.0.2 Chrome/128.0.6613.186 Electron/32.2.5 Safari/537.36" 
  version="25.0.2"
  >
  <diagram
    name="sequence-diagram-from-data"
    >
    <mxGraphModel
      grid="1" 
      gridSize="10" 
      guides="1" 
      tooltips="1" 
      connect="1" 
      arrows="1" 
      fold="1" 
      page="1" 
      pageScale="1" 
      pageWidth="1" 
      pageHeight="1" 
      math="0" 
      shadow="0"
      >
      <root>
        <mxCell
          id="page"
          />
        <mxCell
          id="root" 
          parent="page"
          />
        <mxCell
          style="verticalAlign=top;aspect=fixed;align=center;spacingLeft=5;spacingRight=5;spacingBottom=5;strokeColor=none;" 
          id="sequence_diagram_sequencediagramfromdata" 
          parent="root" 
          value="Sequence Diagram from data" 
          vertex="1"
          >
          <mxGeometry
            as="geometry" 
            width="660" 
            height="1038" 
            x="0" 
            y="0"
            />
          </mxCell>
        <mxCell
          style="verticalAlign=top;aspect=fixed;align=center;spacingLeft=5;spacingRight=5;spacingBottom=5;noLabel=1;opacity=0;" 
          id="rows" 
          parent="sequence_diagram_sequencediagramfromdata" 
          value="Rows" 
          vertex="1"
          >
          <mxGeometry
            as="geometry" 
            width="210" 
            height="1008" 
            x="15" 
            y="15"
            />
          </mxCell>
        <mxCell
          style="verticalAlign=top;aspect=fixed;align=center;spacingLeft=5;spacingRight=5;spacingBottom=5;noLabel=1;opacity=0;" 
          id="participant" 
          parent="rows" 
          value="Participant" 
          vertex="1"
          >
          <mxGeometry
            as="geometry" 
            width="210" 
            height="1008" 
            x="0" 
            y="0"
            />
          </mxCell>
        <mxCell
          style="rounded=1;whiteSpace=wrap;verticalAlign=top;align=center;sketch=0;outlineConnect=0;fontColor=#232F3E;gradientColor=none;fillColor=#232F3D;strokeColor=none;dashed=0;verticalLabelPosition=bottom;html=1;fontSize=12;fontStyle=0;aspect=fixed;pointerEvents=1;shape=mxgraph.aws4.user;" 
          id="user" 
          parent="participant" 
          value="User" 
          vertex="1"
          >
          <mxGeometry
            width="60" 
            height="60" 
            as="geometry" 
            x="75" 
            y="15"
            />
          </mxCell>
        <mxCell
          style="rounded=1;whiteSpace=wrap;verticalAlign=middle;align=center;line;strokeWidth=1;direction=south;html=1;dashed=1;" 
          id="shape_" 
          parent="participant" 
          value=" " 
          vertex="1"
          >
          <mxGeometry
            height="888" 
            as="geometry" 
            width="60" 
            x="75" 
            y="105"
            />
          </mxCell>
        <mxCell
          style="verticalAlign=top;aspect=fixed;align=center;spacingLeft=5;spacingRight=5;spacingBottom=5;noLabel=1;opacity=0;" 
          id="rows_2" 
          parent="participant" 
          value="Rows" 
          vertex="1"
          >
          <mxGeometry
            x="105" 
            y="120" 
            as="geometry" 
            width="0" 
            height="0"
            />
          </mxCell>
        <mxCell
          style="rounded=1;whiteSpace=wrap;verticalAlign=middle;align=center;textDirection=vertical-rl;" 
          id="activation_" 
          parent="rows_2" 
          value=" " 
          vertex="1"
          >
          <mxGeometry
            width="12" 
            height="477" 
            x="-6" 
            y="6" 
            as="geometry"
            />
          </mxCell>
        <mxCell
          style="rounded=1;whiteSpace=wrap;verticalAlign=middle;align=center;textDirection=vertical-rl;" 
          id="activation_2" 
          parent="rows_2" 
          value=" " 
          vertex="1"
          >
          <mxGeometry
            width="12" 
            height="54" 
            x="-6" 
            y="564" 
            as="geometry"
            />
          </mxCell>
        <mxCell
          style="rounded=1;whiteSpace=wrap;verticalAlign=middle;align=center;textDirection=vertical-rl;" 
          id="activation_3" 
          parent="rows_2" 
          value=" " 
          vertex="1"
          >
          <mxGeometry
            width="12" 
            height="54" 
            x="-6" 
            y="714" 
            as="geometry"
            />
          </mxCell>
        <mxCell
          style="rounded=1;whiteSpace=wrap;verticalAlign=middle;align=center;textDirection=vertical-rl;" 
          id="activation_4" 
          parent="rows_2" 
          value=" " 
          vertex="1"
          >
          <mxGeometry
            width="12" 
            height="54" 
            x="-6" 
            y="804" 
            as="geometry"
            />
          </mxCell>
        <mxCell
          style="rounded=1;whiteSpace=wrap;verticalAlign=middle;align=center;shape=umlFrame;html=1;pointerEvents=0;width=93;" 
          id="frame_interaction1" 
          parent="rows_2" 
          value="Interaction 1" 
          vertex="1"
          >
          <mxGeometry
            width="480" 
            height="120" 
            x="-30" 
            y="513" 
            as="geometry"
            />
          </mxCell>
        <mxCell
          style="rounded=1;whiteSpace=wrap;verticalAlign=middle;align=center;shape=umlFrame;html=1;pointerEvents=0;width=93;" 
          id="frame_interaction2" 
          parent="rows_2" 
          value="Interaction 2" 
          vertex="1"
          >
          <mxGeometry
            width="480" 
            height="120" 
            x="-30" 
            y="663" 
            as="geometry"
            />
          </mxCell>
        <mxCell
          style="verticalAlign=top;aspect=fixed;align=center;spacingLeft=5;spacingRight=5;spacingBottom=5;noLabel=1;opacity=0;" 
          id="rows_3" 
          parent="sequence_diagram_sequencediagramfromdata" 
          value="Rows" 
          vertex="1"
          >
          <mxGeometry
            as="geometry" 
            width="210" 
            height="1008" 
            x="225" 
            y="15"
            />
          </mxCell>
        <mxCell
          style="verticalAlign=top;aspect=fixed;align=center;spacingLeft=5;spacingRight=5;spacingBottom=5;noLabel=1;opacity=0;" 
          id="participant_2" 
          parent="rows_3" 
          value="Participant" 
          vertex="1"
          >
          <mxGeometry
            as="geometry" 
            width="210" 
            height="1008" 
            x="0" 
            y="0"
            />
          </mxCell>
        <mxCell
          style="rounded=1;whiteSpace=wrap;verticalAlign=top;align=center;sketch=0;outlineConnect=0;fontColor=#232F3E;gradientColor=none;fillColor=#232F3D;strokeColor=none;dashed=0;verticalLabelPosition=bottom;html=1;fontSize=12;fontStyle=0;aspect=fixed;pointerEvents=1;shape=mxgraph.aws4.client;" 
          id="client" 
          parent="participant_2" 
          value="Client" 
          vertex="1"
          >
          <mxGeometry
            width="60" 
            height="60" 
            as="geometry" 
            x="75" 
            y="15"
            />
          </mxCell>
        <mxCell
          style="rounded=1;whiteSpace=wrap;verticalAlign=middle;align=center;line;strokeWidth=1;direction=south;html=1;dashed=1;" 
          id="shape_2" 
          parent="participant_2" 
          value=" " 
          vertex="1"
          >
          <mxGeometry
            height="888" 
            as="geometry" 
            width="60" 
            x="75" 
            y="105"
            />
          </mxCell>
        <mxCell
          style="verticalAlign=top;aspect=fixed;align=center;spacingLeft=5;spacingRight=5;spacingBottom=5;noLabel=1;opacity=0;" 
          id="rows_4" 
          parent="participant_2" 
          value="Rows" 
          vertex="1"
          >
          <mxGeometry
            x="105" 
            y="120" 
            as="geometry" 
            width="0" 
            height="0"
            />
          </mxCell>
        <mxCell
          style="rounded=1;whiteSpace=wrap;verticalAlign=middle;align=center;textDirection=vertical-rl;" 
          id="activation_5" 
          parent="rows_4" 
          value=" " 
          vertex="1"
          >
          <mxGeometry
            width="12" 
            height="42" 
            x="-6" 
            y="69" 
            as="geometry"
            />
          </mxCell>
        <mxCell
          style="rounded=1;whiteSpace=wrap;verticalAlign=middle;align=center;textDirection=vertical-rl;" 
          id="activation_6" 
          parent="rows_4" 
          value=" " 
          vertex="1"
          >
          <mxGeometry
            width="12" 
            height="42" 
            x="-6" 
            y="138" 
            as="geometry"
            />
          </mxCell>
        <mxCell
          style="rounded=1;whiteSpace=wrap;verticalAlign=middle;align=center;textDirection=vertical-rl;" 
          id="activation_7" 
          parent="rows_4" 
          value=" " 
          vertex="1"
          >
          <mxGeometry
            width="12" 
            height="156" 
            x="-6" 
            y="264" 
            as="geometry"
            />
          </mxCell>
        <mxCell
          style="rounded=1;whiteSpace=wrap;verticalAlign=middle;align=center;textDirection=vertical-rl;" 
          id="activation_8" 
          parent="rows_4" 
          value=" " 
          vertex="1"
          >
          <mxGeometry
            width="12" 
            height="42" 
            x="-6" 
            y="570" 
            as="geometry"
            />
          </mxCell>
        <mxCell
          style="rounded=1;whiteSpace=wrap;verticalAlign=middle;align=center;textDirection=vertical-rl;" 
          id="activation_9" 
          parent="rows_4" 
          value=" " 
          vertex="1"
          >
          <mxGeometry
            width="12" 
            height="42" 
            x="-6" 
            y="720" 
            as="geometry"
            />
          </mxCell>
        <mxCell
          style="rounded=1;whiteSpace=wrap;verticalAlign=middle;align=center;textDirection=vertical-rl;" 
          id="activation_10" 
          parent="rows_4" 
          value=" " 
          vertex="1"
          >
          <mxGeometry
            width="12" 
            height="42" 
            x="-6" 
            y="810" 
            as="geometry"
            />
          </mxCell>
        <mxCell
          style="verticalAlign=top;aspect=fixed;align=center;spacingLeft=5;spacingRight=5;spacingBottom=5;noLabel=1;opacity=0;" 
          id="rows_5" 
          parent="sequence_diagram_sequencediagramfromdata" 
          value="Rows" 
          vertex="1"
          >
          <mxGeometry
            as="geometry" 
            width="210" 
            height="1008" 
            x="435" 
            y="15"
            />
          </mxCell>
        <mxCell
          style="verticalAlign=top;aspect=fixed;align=center;spacingLeft=5;spacingRight=5;spacingBottom=5;noLabel=1;opacity=0;" 
          id="participant_3" 
          parent="rows_5" 
          value="Participant" 
          vertex="1"
          >
          <mxGeometry
            as="geometry" 
            width="210" 
            height="1008" 
            x="0" 
            y="0"
            />
          </mxCell>
        <mxCell
          style="rounded=1;whiteSpace=wrap;verticalAlign=middle;align=center;" 
          id="shape_servers" 
          parent="participant_3" 
          value="Servers" 
          vertex="1"
          >
          <mxGeometry
            width="60" 
            height="60" 
            as="geometry" 
            x="75" 
            y="15"
            />
          </mxCell>
        <mxCell
          style="rounded=1;whiteSpace=wrap;verticalAlign=middle;align=center;line;strokeWidth=1;direction=south;html=1;dashed=1;" 
          id="shape_3" 
          parent="participant_3" 
          value=" " 
          vertex="1"
          >
          <mxGeometry
            height="918" 
            as="geometry" 
            width="60" 
            x="75" 
            y="75"
            />
          </mxCell>
        <mxCell
          style="verticalAlign=top;aspect=fixed;align=center;spacingLeft=5;spacingRight=5;spacingBottom=5;noLabel=1;opacity=0;" 
          id="rows_6" 
          parent="participant_3" 
          value="Rows" 
          vertex="1"
          >
          <mxGeometry
            x="105" 
            y="120" 
            as="geometry" 
            width="0" 
            height="0"
            />
          </mxCell>
        <mxCell
          style="rounded=1;whiteSpace=wrap;verticalAlign=middle;align=center;textDirection=vertical-rl;" 
          id="activation_11" 
          parent="rows_6" 
          value=" " 
          vertex="1"
          >
          <mxGeometry
            width="12" 
            height="30" 
            x="-6" 
            y="75" 
            as="geometry"
            />
          </mxCell>
        <mxCell
          style="rounded=1;whiteSpace=wrap;verticalAlign=middle;align=center;textDirection=vertical-rl;" 
          id="activation_12" 
          parent="rows_6" 
          value=" " 
          vertex="1"
          >
          <mxGeometry
            width="12" 
            height="30" 
            x="-6" 
            y="144" 
            as="geometry"
            />
          </mxCell>
        <mxCell
          style="rounded=1;whiteSpace=wrap;verticalAlign=middle;align=center;textDirection=vertical-rl;" 
          id="activation_13" 
          parent="rows_6" 
          value=" " 
          vertex="1"
          >
          <mxGeometry
            width="12" 
            height="30" 
            x="-6" 
            y="270" 
            as="geometry"
            />
          </mxCell>
        <mxCell
          style="rounded=1;whiteSpace=wrap;verticalAlign=middle;align=center;textDirection=vertical-rl;" 
          id="activation_14" 
          parent="rows_6" 
          value=" " 
          vertex="1"
          >
          <mxGeometry
            width="12" 
            height="30" 
            x="-6" 
            y="384" 
            as="geometry"
            />
          </mxCell>
        <mxCell
          style="rounded=1;whiteSpace=wrap;verticalAlign=middle;align=center;textDirection=vertical-rl;" 
          id="activation_15" 
          parent="rows_6" 
          value=" " 
          vertex="1"
          >
          <mxGeometry
            width="12" 
            height="30" 
            x="-6" 
            y="576" 
            as="geometry"
            />
          </mxCell>
        <mxCell
          style="rounded=1;whiteSpace=wrap;verticalAlign=middle;align=center;textDirection=vertical-rl;" 
          id="activation_16" 
          parent="rows_6" 
          value=" " 
          vertex="1"
          >
          <mxGeometry
            width="12" 
            height="30" 
            x="-6" 
            y="726" 
            as="geometry"
            />
          </mxCell>
        <mxCell
          style="rounded=1;whiteSpace=wrap;verticalAlign=middle;align=center;textDirection=vertical-rl;" 
          id="activation_17" 
          parent="rows_6" 
          value=" " 
          vertex="1"
          >
          <mxGeometry
            width="12" 
            height="30" 
            x="-6" 
            y="816" 
            as="geometry"
            />
          </mxCell>
        <mxCell
          id="message_self" 
          parent="root" 
          edge="1" 
          value="self"
          >
          <mxGeometry
            relative="1" 
            as="geometry"
            >
            <mxPoint
              as="sourcePoint" 
              x="126" 
              y="147"
              />
            <mxPoint
              as="targetPoint" 
              x="126" 
              y="177"
              />
            <Array
              as="points"
              >
              <mxPoint
                x="141" 
                y="147"
                />
              <mxPoint
                x="141" 
                y="177"
                />
              </Array>
            </mxGeometry>
          </mxCell>
        <mxCell
          id="message_m1" 
          parent="root" 
          edge="1" 
          value="M1"
          >
          <mxGeometry
            relative="1" 
            as="geometry"
            >
            <mxPoint
              as="sourcePoint" 
              x="126" 
              y="204"
              />
            <mxPoint
              as="targetPoint" 
              x="324" 
              y="204"
              />
            </mxGeometry>
          </mxCell>
        <mxCell
          id="message_2" 
          parent="root" 
          edge="1" 
          value="M1"
          >
          <mxGeometry
            relative="1" 
            as="geometry"
            >
            <mxPoint
              as="sourcePoint" 
              x="126" 
              y="273"
              />
            <mxPoint
              as="targetPoint" 
              x="324" 
              y="273"
              />
            </mxGeometry>
          </mxCell>
        <mxCell
          id="message_3" 
          parent="root" 
          edge="1" 
          value="self"
          >
          <mxGeometry
            relative="1" 
            as="geometry"
            >
            <mxPoint
              as="sourcePoint" 
              x="126" 
              y="342"
              />
            <mxPoint
              as="targetPoint" 
              x="126" 
              y="372"
              />
            <Array
              as="points"
              >
              <mxPoint
                x="141" 
                y="342"
                />
              <mxPoint
                x="141" 
                y="372"
                />
              </Array>
            </mxGeometry>
          </mxCell>
        <mxCell
          id="message_4" 
          parent="root" 
          edge="1" 
          value="M1"
          >
          <mxGeometry
            relative="1" 
            as="geometry"
            >
            <mxPoint
              as="sourcePoint" 
              x="126" 
              y="399"
              />
            <mxPoint
              as="targetPoint" 
              x="324" 
              y="399"
              />
            </mxGeometry>
          </mxCell>
        <mxCell
          id="message_self3" 
          parent="root" 
          edge="1" 
          value="self3"
          >
          <mxGeometry
            relative="1" 
            as="geometry"
            >
            <mxPoint
              as="sourcePoint" 
              x="126" 
              y="582"
              />
            <mxPoint
              as="targetPoint" 
              x="126" 
              y="612"
              />
            <Array
              as="points"
              >
              <mxPoint
                x="141" 
                y="582"
                />
              <mxPoint
                x="141" 
                y="612"
                />
              </Array>
            </mxGeometry>
          </mxCell>
        <mxCell
          id="message_5" 
          parent="root" 
          edge="1" 
          value="M1"
          >
          <mxGeometry
            relative="1" 
            as="geometry"
            >
            <mxPoint
              as="sourcePoint" 
              x="126" 
              y="705"
              />
            <mxPoint
              as="targetPoint" 
              x="324" 
              y="705"
              />
            </mxGeometry>
          </mxCell>
        <mxCell
          id="message_6" 
          parent="root" 
          edge="1" 
          value="M1"
          >
          <mxGeometry
            relative="1" 
            as="geometry"
            >
            <mxPoint
              as="sourcePoint" 
              x="126" 
              y="855"
              />
            <mxPoint
              as="targetPoint" 
              x="324" 
              y="855"
              />
            </mxGeometry>
          </mxCell>
        <mxCell
          id="message_7" 
          parent="root" 
          edge="1" 
          value="M1"
          >
          <mxGeometry
            relative="1" 
            as="geometry"
            >
            <mxPoint
              as="sourcePoint" 
              x="126" 
              y="945"
              />
            <mxPoint
              as="targetPoint" 
              x="324" 
              y="945"
              />
            </mxGeometry>
          </mxCell>
        <mxCell
          id="message_m2" 
          parent="root" 
          edge="1" 
          value="M2"
          >
          <mxGeometry
            relative="1" 
            as="geometry"
            >
            <mxPoint
              as="sourcePoint" 
              x="336" 
              y="210"
              />
            <mxPoint
              as="targetPoint" 
              x="534" 
              y="210"
              />
            </mxGeometry>
          </mxCell>
        <mxCell
          id="message_" 
          parent="root" 
          edge="1" 
          style="dashed=1;" 
          value=" "
          >
          <mxGeometry
            relative="1" 
            as="geometry"
            >
            <mxPoint
              as="sourcePoint" 
              x="324" 
              y="246"
              />
            <mxPoint
              as="targetPoint" 
              x="126" 
              y="246"
              />
            </mxGeometry>
          </mxCell>
        <mxCell
          id="message_8" 
          parent="root" 
          edge="1" 
          value="M2"
          >
          <mxGeometry
            relative="1" 
            as="geometry"
            >
            <mxPoint
              as="sourcePoint" 
              x="336" 
              y="279"
              />
            <mxPoint
              as="targetPoint" 
              x="534" 
              y="279"
              />
            </mxGeometry>
          </mxCell>
        <mxCell
          id="message_9" 
          parent="root" 
          edge="1" 
          style="dashed=1;" 
          value=" "
          >
          <mxGeometry
            relative="1" 
            as="geometry"
            >
            <mxPoint
              as="sourcePoint" 
              x="324" 
              y="315"
              />
            <mxPoint
              as="targetPoint" 
              x="126" 
              y="315"
              />
            </mxGeometry>
          </mxCell>
        <mxCell
          id="message_10" 
          parent="root" 
          edge="1" 
          value="M2"
          >
          <mxGeometry
            relative="1" 
            as="geometry"
            >
            <mxPoint
              as="sourcePoint" 
              x="336" 
              y="405"
              />
            <mxPoint
              as="targetPoint" 
              x="534" 
              y="405"
              />
            </mxGeometry>
          </mxCell>
        <mxCell
          id="message_11" 
          parent="root" 
          edge="1" 
          value="self"
          >
          <mxGeometry
            relative="1" 
            as="geometry"
            >
            <mxPoint
              as="sourcePoint" 
              x="336" 
              y="462"
              />
            <mxPoint
              as="targetPoint" 
              x="336" 
              y="492"
              />
            <Array
              as="points"
              >
              <mxPoint
                x="351" 
                y="462"
                />
              <mxPoint
                x="351" 
                y="492"
                />
              </Array>
            </mxGeometry>
          </mxCell>
        <mxCell
          id="message_m3" 
          parent="root" 
          edge="1" 
          value="M3"
          >
          <mxGeometry
            relative="1" 
            as="geometry"
            >
            <mxPoint
              as="sourcePoint" 
              x="336" 
              y="519"
              />
            <mxPoint
              as="targetPoint" 
              x="534" 
              y="519"
              />
            </mxGeometry>
          </mxCell>
        <mxCell
          id="message_12" 
          parent="root" 
          edge="1" 
          style="dashed=1;" 
          value=" "
          >
          <mxGeometry
            relative="1" 
            as="geometry"
            >
            <mxPoint
              as="sourcePoint" 
              x="324" 
              y="555"
              />
            <mxPoint
              as="targetPoint" 
              x="126" 
              y="555"
              />
            </mxGeometry>
          </mxCell>
        <mxCell
          id="message_13" 
          parent="root" 
          edge="1" 
          value="M2"
          >
          <mxGeometry
            relative="1" 
            as="geometry"
            >
            <mxPoint
              as="sourcePoint" 
              x="336" 
              y="711"
              />
            <mxPoint
              as="targetPoint" 
              x="534" 
              y="711"
              />
            </mxGeometry>
          </mxCell>
        <mxCell
          id="message_14" 
          parent="root" 
          edge="1" 
          value="M2"
          >
          <mxGeometry
            relative="1" 
            as="geometry"
            >
            <mxPoint
              as="sourcePoint" 
              x="336" 
              y="861"
              />
            <mxPoint
              as="targetPoint" 
              x="534" 
              y="861"
              />
            </mxGeometry>
          </mxCell>
        <mxCell
          id="message_15" 
          parent="root" 
          edge="1" 
          value="M2"
          >
          <mxGeometry
            relative="1" 
            as="geometry"
            >
            <mxPoint
              as="sourcePoint" 
              x="336" 
              y="951"
              />
            <mxPoint
              as="targetPoint" 
              x="534" 
              y="951"
              />
            </mxGeometry>
          </mxCell>
        <mxCell
          id="message_16" 
          parent="root" 
          edge="1" 
          style="dashed=1;" 
          value=" "
          >
          <mxGeometry
            relative="1" 
            as="geometry"
            >
            <mxPoint
              as="sourcePoint" 
              x="534" 
              y="240"
              />
            <mxPoint
              as="targetPoint" 
              x="336" 
              y="240"
              />
            </mxGeometry>
          </mxCell>
        <mxCell
          id="message_17" 
          parent="root" 
          edge="1" 
          style="dashed=1;" 
          value=" "
          >
          <mxGeometry
            relative="1" 
            as="geometry"
            >
            <mxPoint
              as="sourcePoint" 
              x="534" 
              y="309"
              />
            <mxPoint
              as="targetPoint" 
              x="336" 
              y="309"
              />
            </mxGeometry>
          </mxCell>
        <mxCell
          id="message_18" 
          parent="root" 
          edge="1" 
          style="dashed=1;" 
          value=" "
          >
          <mxGeometry
            relative="1" 
            as="geometry"
            >
            <mxPoint
              as="sourcePoint" 
              x="534" 
              y="435"
              />
            <mxPoint
              as="targetPoint" 
              x="336" 
              y="435"
              />
            </mxGeometry>
          </mxCell>
        <mxCell
          id="message_19" 
          parent="root" 
          edge="1" 
          style="dashed=1;" 
          value=" "
          >
          <mxGeometry
            relative="1" 
            as="geometry"
            >
            <mxPoint
              as="sourcePoint" 
              x="534" 
              y="549"
              />
            <mxPoint
              as="targetPoint" 
              x="336" 
              y="549"
              />
            </mxGeometry>
          </mxCell>
        </root>
      </mxGraphModel>
    </diagram>
  </mxfile>